<svg width="500" height="412" viewBox="0 0 500 412" fill="none" xmlns="http://www.w3.org/2000/svg"><path fill-rule="evenodd" clip-rule="evenodd" d="M269.237 212.623C276.159 190.7 281.018 175.217 284.994 132.55L149.621 119.937C148.047 136.831 146.601 145.748 145.319 151.689C144.064 157.503 142.747 161.674 139.748 171.173L139.587 171.679C128.282 207.48 148.139 245.669 183.94 256.975C219.742 268.282 257.93 248.425 269.237 212.623Z" fill="#58CC02"/><path d="M317.146 133.134L219.166 161.992C214.002 163.578 211.854 169.736 214.9 174.184C229.74 195.818 257.361 205.589 283.226 198.061C309.091 190.532 326.867 167.291 327.492 141.024C327.656 135.597 322.434 131.576 317.146 133.134Z" fill="#58CC02"/><path d="M83.389 183.961L183.532 163.856C188.938 162.771 193.706 167.219 193.165 172.671C190.111 198.729 170.222 220.24 143.828 225.627C117.433 231.014 90.8778 218.728 78.088 195.776C75.2355 191.035 77.9836 185.046 83.389 183.961Z" fill="#58CC02"/><path fill-rule="evenodd" clip-rule="evenodd" d="M255.625 102.117C237.287 108.113 227.57 110.901 220.989 110.354C214.408 109.808 200.07 105.15 183.226 96.2337C172.119 90.3419 158.252 94.6701 152.36 105.777C150.99 108.466 150.105 111.451 149.853 114.488L146.253 157.86C143.143 195.32 170.994 228.215 208.454 231.325C245.924 234.307 278.809 206.583 281.919 169.124L285.53 125.625C286.571 113.096 277.287 102.131 264.63 101.081C261.594 100.828 258.63 101.22 255.625 102.117Z" fill="#58CC02"/><path d="M215.15 223.966C215.104 223.043 215.895 222.446 216.762 222.648L233.456 226.547C234.321 226.749 234.738 227.759 234.317 228.443C232.061 231.959 227.592 233.784 223.265 232.773C218.936 231.763 215.614 228.118 215.15 223.966ZM187.701 215.86L204.395 219.76C205.262 219.962 205.678 220.971 205.256 221.655C203.001 225.171 198.532 226.996 194.204 225.985C189.876 224.974 186.554 221.329 186.089 217.178C186.014 216.379 186.836 215.658 187.701 215.86ZM199.03 233.242L215.724 237.141C216.589 237.344 217.005 238.353 216.585 239.037C214.328 242.553 209.86 244.378 205.532 243.367C201.204 242.357 197.881 238.712 197.417 234.56C197.219 233.732 198.039 233.011 199.03 233.242Z" fill="#89E219"/><path d="M254.468 124.402L231.192 143.921C229.912 144.907 230.171 146.862 231.459 147.797C238.103 151.861 246.642 151.174 252.7 145.942C258.756 140.708 260.731 132.385 257.818 125.22C257.117 123.721 255.747 123.415 254.468 124.402Z" fill="#89E219"/><path fill-rule="evenodd" clip-rule="evenodd" d="M234.578 141.543C226.741 148.21 214.651 146.643 208.075 138.107C201.499 129.571 203.556 182.084 203.588 181.831C203.588 181.831 207.674 182.233 215.794 183.414C218.002 183.7 221.955 184.212 227.535 184.936C237.406 151.641 239.766 137.093 234.578 141.543Z" fill="#89E219"/><path d="M264.994 131.144L242.207 150.855C240.927 151.841 241.185 153.796 242.473 154.731C249.117 158.793 257.657 158.108 263.714 152.874C269.771 147.642 271.746 139.318 268.706 132.137C268.148 130.528 266.274 130.157 264.994 131.144Z" fill="#89E219"/><path fill-rule="evenodd" clip-rule="evenodd" d="M254.873 136.106L254.117 136.008C239.383 134.098 225.994 144.527 224.101 159.136L222.271 173.241C220.361 187.975 230.79 201.364 245.4 203.259L246.155 203.356C260.889 205.267 274.278 194.838 276.172 180.228L277.985 166.25C279.895 151.516 269.607 138.016 254.873 136.106Z" fill="#89E219"/><path d="M193.218 116.461L210.368 141.222C211.354 142.502 210.605 144.325 209.122 144.902C201.662 147.135 193.579 144.295 189.056 137.691C184.534 131.086 184.747 122.534 189.516 116.365C190.452 115.078 192.356 115.197 193.218 116.461Z" fill="#89E219"/><path d="M180.945 120.248L198.079 145.134C199.065 146.416 198.316 148.238 196.833 148.815C189.372 151.049 181.29 148.208 176.767 141.603C172.245 134.999 172.458 126.447 177.227 120.278C178.053 118.849 179.957 118.968 180.945 120.248Z" fill="#89E219"/><path fill-rule="evenodd" clip-rule="evenodd" d="M190.469 127.758L189.712 127.66C174.977 125.75 161.589 136.179 159.695 150.787L157.867 164.893C155.957 179.627 166.386 193.016 180.994 194.909L181.624 194.992C196.232 196.886 209.605 186.582 211.625 171.99L213.579 157.901C215.616 143.183 205.328 129.684 190.469 127.758Z" fill="#89E219"/><path fill-rule="evenodd" clip-rule="evenodd" d="M254.972 145.851C244.771 144.529 235.382 151.762 234.059 161.963L232.606 173.172C231.284 183.372 238.518 192.762 248.719 194.084C258.921 195.407 268.309 188.173 269.631 177.972L271.084 166.763C272.407 156.563 265.173 147.174 254.972 145.851Z" fill="white"/><path fill-rule="evenodd" clip-rule="evenodd" d="M245.911 160.972C241.125 160.351 236.715 163.749 236.094 168.535L234.854 178.105C234.234 182.891 237.631 187.301 242.417 187.922C247.202 188.543 251.612 185.145 252.232 180.359L253.474 170.788C254.093 166.002 250.696 161.592 245.911 160.972Z" fill="#4B4B4B"/><path d="M230.299 188.273C241.948 181.941 263.726 181.574 272.029 184.837L261.657 197.939C236.176 205.55 230.299 188.273 230.299 188.273Z" fill="#8EE000"/><path d="M238.808 167.749C235.679 167.344 233.47 164.478 233.875 161.348C234.282 158.218 237.148 156.01 240.278 156.415C243.408 156.822 245.616 159.688 245.21 162.818C244.804 165.947 241.938 168.156 238.808 167.749Z" fill="white"/><path fill-rule="evenodd" clip-rule="evenodd" d="M189.861 137.41C179.66 136.087 170.27 143.321 168.948 153.522L167.495 164.731C166.172 174.931 173.407 184.32 183.608 185.643C193.808 186.966 203.197 179.732 204.52 169.531L205.973 158.322C207.295 148.122 200.062 138.733 189.861 137.41Z" fill="white"/><path fill-rule="evenodd" clip-rule="evenodd" d="M186.59 153.28C181.804 152.661 177.395 156.059 176.774 160.845L175.534 170.415C174.913 175.2 178.311 179.611 183.097 180.231C187.883 180.851 192.293 177.454 192.913 172.668L194.153 163.097C194.774 158.311 191.376 153.901 186.59 153.28Z" fill="#4B4B4B"/><path d="M180.503 160.19C177.373 159.785 175.165 156.919 175.57 153.789C175.976 150.658 178.842 148.45 181.972 148.856C185.102 149.261 187.31 152.128 186.905 155.257C186.499 158.387 183.633 160.596 180.503 160.19Z" fill="white"/><path d="M197.869 183.545C188.796 176.189 168.765 172.271 162.801 173.797L166.868 185.735C190.387 198.599 197.869 183.545 197.869 183.545Z" fill="#8EE000"/><path fill-rule="evenodd" clip-rule="evenodd" d="M219.369 174.377C214.205 173.708 209.369 177.434 208.7 182.598L206.719 197.877C206.049 203.041 209.776 207.878 214.94 208.547C220.103 209.217 224.939 205.49 225.61 200.328L227.59 185.046C228.26 179.884 224.533 175.047 219.369 174.377Z" fill="#F49000"/><path fill-rule="evenodd" clip-rule="evenodd" d="M219.908 175.833C215.881 175.311 212.11 178.217 211.588 182.242L210.043 194.157C209.521 198.184 212.427 201.955 216.454 202.477C220.48 202.999 224.251 200.093 224.773 196.066L226.318 184.152C226.84 180.126 223.934 176.354 219.908 175.833Z" fill="#DC6A01"/><path d="M210.287 192.296L210.045 194.157C209.523 198.183 212.429 201.955 216.456 202.476C217.613 202.627 218.749 202.494 219.793 202.132C218.394 197.593 214.892 193.882 210.287 192.296Z" fill="#FFCAFF"/><path d="M232.689 184.965C232.308 179.025 227.321 174.025 220.773 173.176C214.601 172.375 208.615 176.081 206.747 181.601L206.681 182.105C206.633 182.483 206.727 182.751 207.121 182.674L223.145 186.929C223.396 186.962 223.396 186.962 223.647 186.993L232.055 185.907C232.433 185.956 232.575 185.846 232.625 185.469L232.689 184.965Z" fill="#FFC200"/><path d="M217.329 179.003C217.581 179.036 217.707 179.053 217.975 178.96C219.694 178.542 221.205 178.738 222.51 179.547C223.468 180.055 224.541 179.682 225.032 178.85C225.541 177.891 225.168 176.819 224.335 176.327C222.183 175.151 219.79 174.841 217.156 175.396C216.1 175.643 215.466 176.585 215.713 177.641C215.883 178.304 216.574 178.906 217.329 179.003Z" fill="#FFDE00"/><path fill-rule="evenodd" clip-rule="evenodd" d="M171.382 293.075C169.798 288.517 172.223 283.506 176.781 281.921L189.736 277.416C194.294 275.832 199.305 278.257 200.89 282.815C202.475 287.373 200.048 292.384 195.491 293.969L182.537 298.474C177.978 300.059 172.967 297.633 171.382 293.075Z" fill="#F49000"/><path fill-rule="evenodd" clip-rule="evenodd" d="M270.764 252.849C266.885 249.979 266.063 244.472 268.934 240.593L277.093 229.57C279.965 225.691 285.471 224.87 289.35 227.74C293.229 230.612 294.05 236.118 291.18 239.996L283.019 251.02C280.149 254.898 274.642 255.721 270.764 252.849Z" fill="#F49000"/><path fill-rule="evenodd" clip-rule="evenodd" d="M134.947 339.439L129.572 323.98C128.091 319.722 130.342 315.072 134.598 313.592L267.177 267.493C267.71 267.308 268.281 267.254 268.84 267.339L299.434 271.949C300.385 272.092 301.04 272.979 300.896 273.931C300.844 274.279 300.687 274.603 300.446 274.861L279.312 297.458C278.926 297.87 278.445 298.183 277.912 298.368L145.334 344.466C141.078 345.946 136.426 343.695 134.947 339.439Z" fill="#FFD300"/><path fill-rule="evenodd" clip-rule="evenodd" d="M293.822 281.94L289.846 270.504L299.432 271.948C300.383 272.091 301.038 272.978 300.894 273.929C300.842 274.278 300.685 274.602 300.444 274.859L293.822 281.94Z" fill="#606060"/><path fill-rule="evenodd" clip-rule="evenodd" d="M278.657 298.004L267.986 267.315C268.269 267.288 268.556 267.295 268.839 267.337L291.982 270.825L295.299 280.363L279.312 297.456C279.115 297.666 278.896 297.85 278.657 298.004Z" fill="#FFD8B4"/><path fill-rule="evenodd" clip-rule="evenodd" d="M134.948 339.439L129.573 323.979C128.093 319.722 130.344 315.072 134.6 313.592L157.243 305.718L167.979 336.594L145.336 344.467C141.079 345.946 136.429 343.695 134.948 339.439Z" fill="#F5A4A4"/><path fill-rule="evenodd" clip-rule="evenodd" d="M134.948 339.436L129.571 323.976C128.89 322.014 129 319.969 129.734 318.188L130.189 318.03C132.918 317.082 135.899 318.524 136.848 321.254L142.343 337.057C143.292 339.786 141.85 342.768 139.12 343.717L138.667 343.876C136.986 342.935 135.629 341.398 134.948 339.436Z" fill="#F39393"/><path d="M184.049 313.699C183.668 312.604 184.214 311.411 185.271 310.974L185.391 310.927L255.303 286.619C256.439 286.224 257.679 286.824 258.074 287.96C258.455 289.054 257.909 290.248 256.852 290.686L256.732 290.731L186.82 315.04C185.684 315.435 184.444 314.834 184.049 313.699Z" fill="#FFC000"/><path fill-rule="evenodd" clip-rule="evenodd" d="M157.207 338.988L147.307 310.516C146.744 308.896 147.895 307.026 149.877 306.337C151.858 305.647 153.921 306.401 154.484 308.019L164.384 336.492C164.947 338.11 163.797 339.98 161.815 340.67C159.833 341.359 157.77 340.605 157.207 338.988Z" fill="#C4C4C4"/><path fill-rule="evenodd" clip-rule="evenodd" d="M169.909 334.573L160.008 306.101C159.445 304.483 160.596 302.611 162.578 301.922C164.559 301.234 166.624 301.986 167.185 303.606L177.086 332.078C177.649 333.697 176.498 335.567 174.516 336.257C172.534 336.945 170.472 336.192 169.909 334.573Z" fill="#C4C4C4"/><path fill-rule="evenodd" clip-rule="evenodd" d="M163.555 336.775L153.655 308.303C153.092 306.684 154.242 304.813 156.224 304.124C158.207 303.434 160.27 304.188 160.832 305.807L170.732 334.279C171.295 335.897 170.144 337.769 168.163 338.457C166.181 339.146 164.118 338.394 163.555 336.775Z" fill="#C4C4C4"/><path d="M150.034 315.676C149.64 314.54 150.24 313.3 151.376 312.904C152.47 312.524 153.663 313.069 154.1 314.127L154.146 314.246L155.859 319.174C156.254 320.308 155.653 321.549 154.518 321.944C153.423 322.324 152.231 321.78 151.793 320.723L151.748 320.603L150.034 315.676Z" fill="#DFDFDF"/><path d="M156.385 313.463C155.991 312.328 156.591 311.087 157.727 310.692C158.822 310.312 160.015 310.857 160.452 311.914L160.497 312.034L162.211 316.961C162.605 318.096 162.005 319.337 160.869 319.731C159.775 320.113 158.583 319.568 158.145 318.51L158.099 318.391L156.385 313.463Z" fill="#DFDFDF"/><path d="M162.738 311.251C162.342 310.115 162.944 308.875 164.078 308.481C165.174 308.099 166.366 308.645 166.804 309.702L166.849 309.822L168.562 314.749C168.957 315.885 168.357 317.125 167.222 317.519C166.127 317.901 164.934 317.356 164.495 316.298L164.45 316.179L162.738 311.251Z" fill="#DFDFDF"/><path fill-rule="evenodd" clip-rule="evenodd" d="M345.923 223.917C343.119 248.783 328.49 264.981 312.026 269.744C310.569 270.165 309.046 269.325 308.624 267.868C308.203 266.411 309.042 264.888 310.499 264.466C324.531 260.408 337.872 246.29 340.464 223.302C341.714 212.215 347.879 204.947 355.735 201.357C363.471 197.822 372.728 197.896 380.367 201.07C381.768 201.652 382.432 203.261 381.85 204.661C381.267 206.062 379.66 206.726 378.259 206.143C371.948 203.52 364.285 203.49 358.018 206.353C351.872 209.162 346.951 214.794 345.923 223.917Z" fill="#606060"/><path d="M381.473 98.9506L365.049 111.884C364.188 112.578 364.248 113.911 365.165 114.525C369.63 117.507 375.621 117.264 379.964 113.867C384.306 110.47 385.917 104.702 384.039 99.6631C383.657 98.6194 382.359 98.2524 381.473 98.9506Z" fill="#58CC02"/><path d="M347.352 160.573L364.031 168.458C364.918 168.866 365.948 168.293 366.072 167.327C366.671 162.626 364.121 157.99 359.729 155.896C355.336 153.803 350.146 154.8 346.905 158.266C346.231 158.978 346.452 160.148 347.352 160.573Z" fill="#58CC02"/><path d="M315.974 113.749L344.8 105.33C346.319 104.868 346.954 103.059 346.062 101.749C341.713 95.3784 333.599 92.4871 325.99 94.6831C318.38 96.8792 313.139 103.701 312.937 111.423C312.886 113.018 314.418 114.204 315.974 113.749Z" fill="#58CC02"/></svg>