<svg width="38" height="26" viewBox="0 0 38 26" fill="none" xmlns="http://www.w3.org/2000/svg"><path d="M26.4 9.82425C26.9114 9.64148 27.3927 9.50439 27.8439 9.41301C28.3252 9.32162 28.7915 9.27592 29.2427 9.27592C31.6492 9.27592 33.6195 10.0527 35.1537 11.6063C36.7179 13.1295 37.5 15.0943 37.5 17.5009C37.5 19.9074 36.6878 21.918 35.0634 23.5325C33.4691 25.1166 31.4687 25.9086 29.0622 25.9086C26.3549 25.9086 24.2492 25.01 22.7451 23.2127C21.2411 21.3849 20.489 18.8565 20.489 15.6274C20.489 11.6368 21.6321 8.19449 23.9183 5.30053C26.2346 2.3761 29.2126 0.609256 32.8524 0L34.0707 2.51318C31.8748 2.84827 30.1301 3.62507 28.8366 4.84359C27.5732 6.03163 26.761 7.69186 26.4 9.82425ZM6.4561 9.82425C6.96748 9.64148 7.44878 9.50439 7.9 9.41301C8.3813 9.32162 8.84756 9.27592 9.29878 9.27592C11.7053 9.27592 13.6756 10.0527 15.2098 11.6063C16.7439 13.1295 17.511 15.0943 17.511 17.5009C17.511 19.9074 16.6988 21.9332 15.0744 23.5782C13.4801 25.1927 11.4947 26 9.11829 26C6.41098 26 4.29024 25.0861 2.7561 23.2583C1.25203 21.4306 0.5 18.8869 0.5 15.6274C0.5 11.6368 1.65813 8.20972 3.97439 5.34622C6.29065 2.45226 9.2687 0.700644 12.9085 0.0913884L14.1268 2.60457C11.9008 2.93966 10.1561 3.70123 8.89268 4.88928C7.62927 6.07733 6.81707 7.72232 6.4561 9.82425Z" fill="#A5ED6E"/></svg>