<svg width="192" height="32" viewBox="0 0 192 32" fill="none" xmlns="http://www.w3.org/2000/svg"><path d="M169.164 31.3159C167.382 32.1987 165.33 30.7323 165.633 28.7918L166.818 21.1942L161.32 15.7327C159.916 14.3379 160.7 11.9651 162.669 11.6486L170.379 10.4094L173.96 3.57767C174.875 1.83283 177.41 1.83283 178.325 3.57767L181.905 10.4094L189.616 11.6486C191.585 11.9651 192.369 14.3379 190.965 15.7327L185.467 21.1942L186.652 28.7918C186.955 30.7323 184.903 32.1987 183.121 31.3159L176.142 27.8596L169.164 31.3159Z" fill="#FFC700"/><path fill-rule="evenodd" clip-rule="evenodd" d="M176.233 7.30316C176.233 6.13995 174.583 5.91396 174.27 7.03435L172.853 12.1115L165.005 13.3619C164.008 13.5209 163.848 14.8905 164.783 15.2744L176.233 19.9781V7.30316Z" fill="#FBE56D"/><path d="M129.093 31.3159C127.311 32.1987 125.259 30.7323 125.562 28.7918L126.746 21.1942L121.249 15.7327C119.845 14.3379 120.628 11.9651 122.598 11.6486L130.308 10.4094L133.889 3.57767C134.803 1.83283 137.339 1.83283 138.254 3.57767L141.834 10.4094L149.545 11.6486C151.514 11.9651 152.298 14.3379 150.893 15.7327L145.396 21.1942L146.581 28.7918C146.883 30.7323 144.832 32.1987 143.049 31.3159L136.071 27.8596L129.093 31.3159Z" fill="#FFC700"/><path fill-rule="evenodd" clip-rule="evenodd" d="M136.162 7.30316C136.162 6.13995 134.511 5.91396 134.199 7.03435L132.782 12.1115L124.934 13.3619C123.936 13.5209 123.777 14.8905 124.711 15.2744L136.162 19.9781V7.30316Z" fill="#FBE56D"/><path d="M89.0216 31.3159C87.2394 32.1987 85.1879 30.7323 85.4904 28.7918L86.6752 21.1942L81.1776 15.7327C79.7736 14.3379 80.5572 11.9651 82.5264 11.6486L90.2369 10.4094L93.8175 3.57767C94.732 1.83283 97.2678 1.83283 98.1823 3.57767L101.763 10.4094L109.473 11.6486C111.443 11.9651 112.226 14.3379 110.822 15.7327L105.325 21.1942L106.509 28.7918C106.812 30.7323 104.76 32.1987 102.978 31.3159L95.9999 27.8596L89.0216 31.3159Z" fill="#FFC700"/><path fill-rule="evenodd" clip-rule="evenodd" d="M96.0906 7.30316C96.0906 6.13995 94.4401 5.91396 94.1274 7.03435L92.7104 12.1115L84.8627 13.3619C83.8649 13.5209 83.7055 14.8905 84.6401 15.2744L96.0906 19.9781V7.30316Z" fill="#FBE56D"/><path d="M48.9504 31.3159C47.1681 32.1987 45.1166 30.7323 45.4192 28.7918L46.6039 21.1942L41.1063 15.7327C39.7023 14.3379 40.4859 11.9651 42.4551 11.6486L50.1656 10.4094L53.7462 3.57767C54.6607 1.83283 57.1965 1.83283 58.111 3.57767L61.6916 10.4094L69.4021 11.6486C71.3714 11.9651 72.155 14.3379 70.7509 15.7327L65.2533 21.1942L66.4381 28.7918C66.7407 30.7323 64.6891 32.1987 62.9069 31.3159L55.9286 27.8596L48.9504 31.3159Z" fill="#FFC700"/><path fill-rule="evenodd" clip-rule="evenodd" d="M56.0193 7.30316C56.0193 6.13995 54.3688 5.91396 54.0561 7.03435L52.6391 12.1115L44.7914 13.3619C43.7936 13.5209 43.6342 14.8905 44.5688 15.2744L56.0193 19.9781V7.30316Z" fill="#FBE56D"/><path d="M8.87907 31.3159C7.0968 32.1987 5.04528 30.7323 5.34786 28.7918L6.53261 21.1942L1.03506 15.7327C-0.369027 14.3379 0.414585 11.9651 2.38386 11.6486L10.0943 10.4094L13.6749 3.57767C14.5894 1.83283 17.1252 1.83283 18.0397 3.57767L21.6203 10.4094L29.3308 11.6486C31.3001 11.9651 32.0837 14.3379 30.6796 15.7327L25.1821 21.1942L26.3668 28.7918C26.6694 30.7323 24.6179 32.1987 22.8356 31.3159L15.8573 27.8596L8.87907 31.3159Z" fill="#FFC700"/><path fill-rule="evenodd" clip-rule="evenodd" d="M15.948 7.30316C15.948 6.13995 14.2975 5.91396 13.9848 7.03435L12.5678 12.1115L4.72012 13.3619C3.72235 13.5209 3.56292 14.8905 4.4975 15.2744L15.948 19.9781V7.30316Z" fill="#FBE56D"/></svg>