<svg width="270" height="285" viewBox="0 0 270 285" fill="none" xmlns="http://www.w3.org/2000/svg"><path opacity="0.35" d="M228.88 81.7133C228.24 81.3321 228.433 79.9801 229.155 79.7986C230.22 79.5312 231.338 79.1377 232.135 78.5666C233.058 77.9041 233.881 76.7642 234.515 75.6879C234.888 75.0547 236.169 75.2427 236.346 75.956C236.664 77.2418 237.168 78.6663 237.951 79.6063C238.604 80.3909 239.727 81.1258 240.764 81.6967C241.39 82.0412 241.245 83.1789 240.552 83.3498C239.372 83.6403 238.057 84.0628 237.212 84.6339C236.173 85.3364 235.258 86.5843 234.577 87.7174C234.206 88.3348 233.013 88.1563 232.847 87.4554C232.543 86.1737 232.071 84.7209 231.369 83.7754C230.777 82.9771 229.822 82.2735 228.88 81.7133Z" fill="#F9D6FF"/><path d="M89.5334 156.806L180.692 97.6912C185.579 94.5226 192.14 97.0389 193.652 102.66C200.912 129.671 189.842 158.753 165.758 174.371C141.674 189.989 110.566 188.259 88.8086 170.649C84.2803 166.984 84.6472 159.975 89.5334 156.806Z" fill="#58CC02"/><path d="M198.444 96.3203H184.962C181.239 96.3203 178.221 99.3383 178.221 103.061C178.221 106.784 181.239 109.802 184.962 109.802H198.444C202.167 109.802 205.185 106.784 205.185 103.061C205.185 99.3383 202.167 96.3203 198.444 96.3203Z" fill="#58CC02"/><path d="M37.9046 245.232L59.2779 144.773C60.4235 139.388 66.4954 136.687 71.2693 139.439C94.2063 152.659 106.275 179.512 100.628 206.053C94.981 232.594 73.0236 252.222 46.6877 254.978C41.2063 255.552 36.759 250.617 37.9046 245.232Z" fill="#58CC02"/><path fill-rule="evenodd" clip-rule="evenodd" d="M175.964 265.707C173.935 269.679 169.073 271.258 165.097 269.238L157.213 265.231C157.207 265.229 157.202 265.226 157.197 265.223C153.236 263.2 151.665 258.348 153.689 254.387C155.718 250.415 160.58 248.835 164.556 250.856L172.44 254.862C172.445 254.865 172.451 254.868 172.456 254.87C176.417 256.894 177.987 261.746 175.964 265.707Z" fill="#F49000"/><path fill-rule="evenodd" clip-rule="evenodd" d="M132.087 262.079C132.087 266.552 128.461 270.178 123.988 270.178H111.053C106.58 270.178 102.954 266.552 102.954 262.079C102.954 257.606 106.58 253.98 111.053 253.98H123.988C128.461 253.98 132.087 257.606 132.087 262.079Z" fill="#F49000"/><path fill-rule="evenodd" clip-rule="evenodd" d="M181.106 262.112C181.106 266.567 177.495 270.179 173.039 270.179H170.546C166.091 270.179 162.479 266.567 162.479 262.112C162.479 257.657 166.091 254.045 170.546 254.045H173.039C177.495 254.045 181.106 257.657 181.106 262.112Z" fill="#F49000"/><path fill-rule="evenodd" clip-rule="evenodd" d="M109.651 93.2016C111.488 91.0984 113.726 89.3832 116.235 88.1565C126.641 83.0678 139.202 87.3783 144.29 97.7841L172.782 156.047C172.801 156.085 172.82 156.124 172.839 156.163C187.899 187.123 175.01 224.429 144.05 239.489C113.008 254.59 75.5994 241.709 60.4343 210.698L32.0475 152.65C30.8034 150.106 30.0874 147.336 29.9426 144.508C29.3506 132.939 38.2486 123.081 49.817 122.489C67.1983 121.6 78.5874 119.842 83.9845 117.217C89.4245 114.571 97.9802 106.566 109.651 93.2016Z" fill="#58CC02"/><path d="M108.384 106.374C108.791 104.961 110.101 104.528 111.322 105.349C117.186 109.292 119.897 116.666 117.892 123.63C115.887 130.594 109.665 135.417 102.593 135.666C101.121 135.718 100.029 134.322 100.436 132.909L108.384 106.374Z" fill="#89E219"/><path fill-rule="evenodd" clip-rule="evenodd" d="M101.695 127.469C108.311 140.858 114.179 152.86 119.302 163.473C104.901 170.388 97.7191 173.882 97.7547 173.955C97.8081 174.064 87.2307 152.434 80.1343 137.923C88.7079 141.446 99.0909 136.429 101.695 127.469Z" fill="#89E219"/><path d="M118.814 106.528C119.221 105.114 120.891 104.506 122.111 105.327C127.975 109.272 130.685 116.649 128.678 123.618C126.672 130.588 120.448 135.414 113.377 135.665C111.905 135.717 110.812 134.32 111.22 132.906L118.814 106.528Z" fill="#89E219"/><path d="M60.442 129.814L86.0652 140.336C87.4192 140.909 87.8167 142.636 86.8503 143.747C82.2067 149.086 74.5431 150.887 67.869 148.062C61.195 145.238 57.1704 138.491 57.7967 131.452C57.927 129.987 59.088 129.241 60.442 129.814Z" fill="#89E219"/><path d="M53.9985 138.021L79.2775 148.719C80.6325 149.293 81.0306 151.021 80.0639 152.132C75.4189 157.47 67.7513 159.269 61.0727 156.442C54.394 153.616 50.3655 146.867 50.9903 139.828C51.1204 138.363 52.6436 137.448 53.9985 138.021Z" fill="#89E219"/><path fill-rule="evenodd" clip-rule="evenodd" d="M115.121 113.14C126.668 107.523 140.583 112.314 146.223 123.85L153.701 139.14C153.708 139.154 153.715 139.169 153.722 139.183C159.347 150.747 154.533 164.682 142.969 170.307L141.228 171.154C129.681 176.771 115.767 171.98 110.126 160.444L102.649 145.154C102.642 145.14 102.635 145.125 102.627 145.111C97.0022 133.547 101.816 119.612 113.38 113.987L115.121 113.14Z" fill="#89E219"/><path fill-rule="evenodd" clip-rule="evenodd" d="M60.7095 139.05C60.7486 139.031 60.7878 139.013 60.8271 138.994C72.4223 133.433 86.3296 138.326 91.8899 149.921L99.2495 165.269C104.788 176.818 99.9579 190.672 88.4399 196.275L86.8163 197.064C75.2695 202.681 61.3549 197.89 55.7139 186.355L48.2367 171.065C48.2296 171.05 48.2225 171.036 48.2155 171.021C42.5902 159.457 47.4044 145.523 58.9683 139.897L60.7095 139.05Z" fill="#89E219"/><path fill-rule="evenodd" clip-rule="evenodd" d="M119.662 120.743C128.184 116.598 138.453 120.134 142.615 128.647L147.104 137.825C147.109 137.835 147.114 137.846 147.119 137.857C151.253 146.355 147.715 156.596 139.217 160.731C130.695 164.876 120.426 161.34 116.263 152.827L111.775 143.649C111.77 143.639 111.765 143.628 111.759 143.617C107.625 135.119 111.163 124.878 119.662 120.743Z" fill="white"/><path fill-rule="evenodd" clip-rule="evenodd" d="M64.7611 147.632C73.2826 143.486 83.5515 147.022 87.7145 155.535L92.2026 164.713C92.2078 164.724 92.213 164.734 92.2182 164.745C96.3524 173.244 92.8142 183.485 84.3155 187.619C75.794 191.764 65.5251 188.228 61.3621 179.715L56.874 170.537C56.8688 170.527 56.8636 170.516 56.8584 170.505C52.7242 162.007 56.2624 151.766 64.7611 147.632Z" fill="white"/><path fill-rule="evenodd" clip-rule="evenodd" d="M121.702 130.957C125.719 129.002 130.56 130.669 132.523 134.683L136.379 142.569C136.382 142.574 136.384 142.579 136.387 142.584C138.336 146.59 136.668 151.418 132.661 153.367C128.644 155.321 123.803 153.654 121.84 149.641L117.984 141.755C117.981 141.75 117.979 141.745 117.976 141.74C116.027 137.734 117.695 132.906 121.702 130.957Z" fill="#4B4B4B"/><path fill-rule="evenodd" clip-rule="evenodd" d="M71.7038 154.914C75.7211 152.96 80.5621 154.626 82.5247 158.64L86.3811 166.526C86.3836 166.531 86.386 166.536 86.3885 166.541C88.3374 170.547 86.6694 175.375 82.6629 177.324C78.6456 179.278 73.8046 177.611 71.842 173.598L67.9856 165.712C67.9831 165.707 67.9807 165.702 67.9783 165.697C66.0293 161.691 67.6973 156.863 71.7038 154.914Z" fill="#4B4B4B"/><path d="M64.3593 191.301L55.8687 174.053C71.7831 170.995 85.043 171.987 100.019 176.899L93.3713 193.211C83.7189 188.999 74.2055 188.381 64.3593 191.301Z" fill="#89E219"/><path d="M153.983 150.493C144.95 155.372 138.662 162.518 134.823 172.304L118.557 165.458C125.664 151.423 134.338 141.37 147.759 132.309L153.983 150.493Z" fill="#89E219"/><path fill-rule="evenodd" clip-rule="evenodd" d="M104.563 160.123C108.946 157.991 114.227 159.81 116.368 164.188L117.43 166.359C117.433 166.365 117.435 166.37 117.438 166.376C119.564 170.747 117.744 176.013 113.374 178.14C108.991 180.271 103.71 178.453 101.569 174.075L100.507 171.903C100.504 171.898 100.502 171.892 100.499 171.887C98.373 167.516 100.193 162.249 104.563 160.123Z" fill="#F49000"/><path d="M119.587 163.716L119.898 164.353L109.799 171.582L97.8692 175.069L97.5577 174.432C96.027 168.961 98.7486 162.814 103.897 160.31C109.675 157.499 116.207 159.144 119.587 163.716Z" fill="#FFC200"/><path d="M108.867 161.322C109.827 161.221 110.687 161.917 110.788 162.877C110.889 163.837 110.192 164.697 109.232 164.798C107.738 164.955 106.502 165.556 105.459 166.634C104.787 167.327 103.68 167.344 102.987 166.673C102.294 166.001 102.276 164.895 102.948 164.201C104.562 162.535 106.557 161.565 108.867 161.322Z" fill="#FFDE00"/><path d="M143.716 191.036C144.471 190.669 145.354 191.119 145.46 191.925C145.969 195.796 143.836 199.676 140.116 201.484C136.396 203.292 132.014 202.578 129.266 199.795C128.694 199.216 128.881 198.245 129.636 197.879L143.716 191.036Z" fill="#89E219"/><path fill-rule="evenodd" clip-rule="evenodd" d="M83.3446 160.411C80.7897 161.653 77.7084 160.595 76.4623 158.047C75.2161 155.499 76.2771 152.426 78.832 151.183C81.3869 149.94 84.4683 150.998 85.7144 153.546C86.9605 156.095 85.8995 159.168 83.3446 160.411Z" fill="white"/><path d="M119.207 203.256C119.961 202.889 120.844 203.339 120.95 204.145C121.459 208.016 119.326 211.896 115.606 213.704C111.886 215.512 107.504 214.798 104.756 212.015C104.184 211.436 104.371 210.466 105.126 210.099L119.207 203.256Z" fill="#89E219"/><path d="M137.344 209.123C138.099 208.757 138.981 209.207 139.087 210.012C139.596 213.883 137.463 217.764 133.743 219.572C130.023 221.38 125.641 220.665 122.893 217.883C122.321 217.304 122.509 216.333 123.264 215.966L137.344 209.123Z" fill="#89E219"/><path fill-rule="evenodd" clip-rule="evenodd" d="M132.364 136.454C129.809 137.697 126.728 136.639 125.481 134.09C124.235 131.542 125.296 128.469 127.851 127.226C130.406 125.983 133.488 127.042 134.734 129.59C135.98 132.138 134.919 135.211 132.364 136.454Z" fill="white"/><path opacity="0.3" fill-rule="evenodd" clip-rule="evenodd" d="M189.943 270.18C192.643 270.18 194.832 272.369 194.832 275.069C194.832 277.769 192.643 279.958 189.943 279.958H80.6049C77.9048 279.958 75.7159 277.769 75.7159 275.069C75.7159 272.369 77.9048 270.18 80.6049 270.18H189.943Z" fill="#AFAFAF"/><path opacity="0.3" d="M233.329 8.25176C233.604 7.74289 234.605 7.89294 234.716 8.46067C234.977 9.79709 235.423 11.3876 236.169 12.4445C237.004 13.627 238.578 14.6583 239.877 15.3679C240.377 15.6413 240.23 16.5957 239.67 16.7059C238.15 17.0051 236.226 17.5551 235.033 18.5327C234.039 19.3478 233.114 20.8742 232.475 22.1034C232.219 22.5953 231.36 22.4799 231.247 21.9372C230.957 20.5518 230.477 18.7833 229.769 17.7184C228.905 16.4185 227.233 15.2963 225.911 14.5526C225.423 14.2786 225.564 13.3832 226.112 13.276C227.601 12.985 229.532 12.4659 230.715 11.6008C231.776 10.826 232.683 9.44728 233.329 8.25176Z" fill="#A9A1FF"/><path d="M186.75 49.0469L151.364 39.5534C149.468 39.0445 147.635 40.5296 147.745 42.4862C148.273 51.8872 154.88 60.0541 164.229 62.5623C173.578 65.0705 183.343 61.2961 188.442 53.4049C189.504 51.7624 188.647 49.5558 186.75 49.0469Z" stroke="#A7A0FF" stroke-width="6.58962"/><path d="M233.541 39.5691L198.149 49.0404C196.252 49.548 195.408 51.7505 196.481 53.3901C201.639 61.2677 211.444 65.0366 220.795 62.5343C230.145 60.032 236.715 51.8809 237.186 42.4971C237.284 40.544 235.438 39.0614 233.541 39.5691Z" stroke="#A7A0FF" stroke-width="6.58962"/><path d="M177.284 18.4993L166.906 26.2229C165.561 27.2233 164.769 28.8004 164.769 30.4761V42.4691H220.527V30.5306C220.527 28.8243 219.705 27.2223 218.32 26.2262L207.515 18.4563C206.756 17.9107 205.846 17.6172 204.911 17.6172H179.947C178.988 17.6172 178.054 17.9265 177.284 18.4993Z" fill="#5C6CFC"/><path fill-rule="evenodd" clip-rule="evenodd" d="M162.761 39.8792V32.7263C162.761 31.7179 163.827 31.0657 164.725 31.5246L178.432 38.5297L192.417 33.4119C192.714 33.3031 193.041 33.3023 193.339 33.4097L207.539 38.5297L220.144 31.617C221.044 31.1238 222.143 31.7746 222.143 32.8003V43.112L222.02 43.2131V52.335C222.02 68.6987 208.754 81.9642 192.391 81.9642C176.027 81.9642 162.761 68.6988 162.761 52.335V39.8793V39.8792Z" fill="#A7A0FF"/><path d="M221.823 43.8262V52.3388C221.823 68.7026 208.557 81.968 192.193 81.968C178.739 81.968 167.38 73.0007 163.765 60.7168C181.92 82.0189 219.388 65.8426 221.823 43.8262Z" fill="#958DFB"/><path d="M177.819 90.1237C177.819 88.3327 179.271 86.8809 181.062 86.8809H204.325C206.116 86.8809 207.568 88.3327 207.568 90.1237C207.568 91.9147 206.116 93.3665 204.325 93.3665H181.062C179.271 93.3665 177.819 91.9147 177.819 90.1237Z" fill="#958DFB"/><path d="M195.614 78.168H189.155V92.1063H195.614V78.168Z" fill="#958DFB"/><path d="M184.572 87.3511C188.375 87.3511 189.212 85.1808 189.155 84.0957L193.995 88.2935L186.242 91.7202C184.1 90.2638 180.768 87.3511 184.572 87.3511Z" fill="#958DFB"/><path d="M184.615 80.5327C188.304 81.4608 189.166 83.003 189.166 84.1094L193.996 79.9042L186.243 77.5768C184.101 79.0331 181.295 79.6974 184.615 80.5327Z" fill="#958DFB"/><path d="M200.134 80.7534C196.445 81.6815 195.582 83.2237 195.582 84.3301L190.753 80.125L198.506 76.6982C200.647 78.1546 203.453 79.9181 200.134 80.7534Z" fill="#958DFB"/><path d="M200.244 87.2417C196.44 87.2417 195.493 85.0715 195.551 83.9863L190.82 88.1841L198.573 91.6108C200.715 90.1545 204.047 87.2417 200.244 87.2417Z" fill="#958DFB"/><path d="M168.098 28.0369L177.684 20.916C178.363 20.4119 179.324 20.9124 179.299 21.7573L179.018 31.6247C178.999 32.2885 178.357 32.7546 177.72 32.5666L168.415 29.8201C167.615 29.5838 167.428 28.5347 168.098 28.0369Z" fill="#7D8BFF"/><path d="M170.792 94.1393C170.792 92.3484 172.244 90.8965 174.035 90.8965H210.64C212.431 90.8965 213.883 92.3484 213.883 94.1393C213.883 95.9303 212.431 97.3822 210.64 97.3822H174.035C172.244 97.3822 170.792 95.9303 170.792 94.1393Z" fill="#A7A0FF"/></svg>